<?xml version="1.0" standalone="no"?>
<!DOCTYPE svg PUBLIC "-//W3C//DTD SVG 20010904//EN"
 "http://www.w3.org/TR/2001/REC-SVG-20010904/DTD/svg10.dtd">
<svg version="1.0" xmlns="http://www.w3.org/2000/svg"
 width="1000.000000pt" height="1000.000000pt" viewBox="0 0 1000.000000 1000.000000"
 preserveAspectRatio="xMidYMid meet">
<metadata>
Created by potrace 1.14, written by Peter Selinger 2001-2017
</metadata>
<g transform="translate(0.000000,1000.000000) scale(0.100000,-0.100000)"
fill="#000000" stroke="none">
<path d="M4768 9715 c-2 -2 -50 -6 -108 -10 -58 -3 -118 -9 -134 -11 -15 -3
-49 -7 -75 -9 -25 -2 -60 -6 -76 -9 -17 -3 -50 -8 -75 -11 -254 -35 -683 -144
-907 -231 -149 -57 -193 -75 -283 -114 -114 -50 -414 -200 -445 -223 -5 -4
-58 -36 -117 -72 -97 -58 -286 -181 -298 -195 -3 -3 -41 -32 -85 -65 -44 -33
-85 -64 -92 -70 -7 -5 -18 -14 -25 -20 -136 -105 -453 -408 -585 -560 -419
-480 -737 -1040 -937 -1649 -42 -128 -126 -444 -140 -526 -7 -45 -14 -83 -26
-145 -5 -27 -12 -70 -15 -95 -3 -25 -8 -56 -10 -70 -3 -14 -7 -52 -11 -85 -3
-33 -8 -73 -10 -90 -27 -260 -22 -734 11 -985 2 -19 7 -57 10 -85 4 -27 10
-75 15 -105 5 -30 12 -71 15 -90 61 -383 220 -866 416 -1265 284 -579 710
-1122 1194 -1523 50 -41 101 -84 115 -96 35 -30 220 -163 310 -223 237 -158
547 -323 796 -423 43 -18 88 -36 99 -41 92 -40 369 -129 525 -169 47 -11 101
-25 120 -30 145 -39 449 -87 660 -105 197 -16 506 -21 670 -10 112 7 212 16
240 20 14 2 68 9 120 15 52 6 115 15 140 20 25 5 65 12 90 16 24 3 47 7 50 9
3 2 22 6 43 9 62 10 301 72 442 114 406 123 909 362 1217 578 26 19 50 34 53
34 13 0 392 294 425 330 3 3 28 25 55 49 147 130 360 350 475 491 25 30 47 57
51 60 3 3 39 50 80 105 41 55 76 102 79 105 14 12 183 275 243 376 155 264
301 587 400 886 32 94 92 299 103 348 2 11 6 28 8 37 25 101 41 182 71 360 2
16 7 39 9 53 3 14 8 52 12 85 3 33 8 71 10 85 2 14 6 61 9 105 3 44 8 103 11
130 7 61 7 488 0 570 -13 176 -17 222 -21 245 -2 14 -7 48 -10 75 -10 76 -25
168 -50 310 -62 336 -213 787 -384 1139 -61 125 -100 196 -232 424 -24 42
-160 245 -168 252 -4 3 -14 16 -22 30 -22 35 -163 215 -224 286 -277 325 -618
629 -965 861 -438 291 -841 477 -1365 629 -33 10 -65 19 -71 20 -6 1 -50 11
-97 23 -95 23 -258 56 -327 66 -25 3 -52 8 -60 10 -8 2 -41 7 -73 10 -32 4
-67 8 -78 10 -11 2 -55 7 -97 10 -42 4 -90 9 -107 12 -29 5 -582 12 -587 8z"/>
</g>
</svg>
